<svg xmlns="http://www.w3.org/2000/svg" width="1200" height="320" viewBox="0 0 1200 320" role="img" aria-label="Grupo Modernia Asesores">
  <rect width="1200" height="320" fill="#ffffff"/>
  <defs>
    <linearGradient id="m1" x1="0" x2="1">
      <stop offset="0" stop-color="#b88b15"/>
      <stop offset="1" stop-color="#628766"/>
    </linearGradient>
  </defs>
  <path fill="url(#m1)" d="M50 264 154 44c13-27 51-27 64 0l100 210c7 14-3 30-19 30H218c-13 0-24-7-30-19l-47-102c-5-12-22-12-28 0L59 284c-5 11-21 7-9-20Z"/>
  <path fill="url(#m1)" d="M260 264 364 44c13-27 51-27 64 0l100 210c7 14-3 30-19 30h-81c-13 0-24-7-30-19l-47-102c-5-12-22-12-28 0l-54 121c-5 11-21 7-9-20Z" opacity=".94"/>
  <text x="610" y="190" font-family="Georgia, 'Times New Roman', serif" font-size="170" fill="#688b6b" text-anchor="middle">modernia</text>
  <text x="885" y="84" font-family="Arial, sans-serif" font-size="48" font-weight="500" fill="#688b6b">GRUPO</text>
  <circle cx="1018" cy="70" r="23" fill="#688b6b"/>
  <rect x="830" y="232" width="305" height="58" fill="#688b6b"/>
  <text x="982" y="276" font-family="Arial, sans-serif" font-size="38" font-weight="700" letter-spacing="18" fill="#ffffff" text-anchor="middle">ASESORES</text>
</svg>
