<svg xmlns="http://www.w3.org/2000/svg" viewBox="0 0 128 128" role="img" aria-labelledby="title desc">
  <title id="title">2J icon</title>
  <desc id="desc">Monograma refinado de 2J Football Intelligence.</desc>
  <defs>
    <linearGradient id="bg" x1="0" y1="0" x2="1" y2="1">
      <stop offset="0%" stop-color="#0E1A2C"/>
      <stop offset="100%" stop-color="#08111D"/>
    </linearGradient>
    <linearGradient id="accent" x1="0" y1="0" x2="1" y2="1">
      <stop offset="0%" stop-color="#F4B400"/>
      <stop offset="100%" stop-color="#2F7D32"/>
    </linearGradient>
  </defs>
  <rect width="128" height="128" rx="28" fill="url(#bg)"/>
  <rect x="1" y="1" width="126" height="126" rx="27" fill="none" stroke="#FFFFFF" stroke-opacity=".08"/>
  <path d="M33 35c7.2-5.1 15.2-7.7 23.8-7.7 8.7 0 15.5 2 20.4 6 5 4 7.5 9.3 7.5 16.1 0 5.5-1.6 10.1-4.8 14-3 3.8-7.5 7.9-13.4 12.2l-12.1 9.1h31.9v13H30.4V85.4l26.2-20.4c5-3.9 8.3-6.9 10-8.9 1.7-2.1 2.6-4.5 2.6-7.1 0-3.1-1.1-5.4-3.2-7.2-2.1-1.7-4.9-2.6-8.8-2.6-6.4 0-12.9 2.3-19.2 7L33 35Z" fill="#F5F7FA"/>
  <path d="M94 33v40c0 8.5-2.4 15.1-7.3 19.8-4.8 4.7-11.9 7-21 7-7.6 0-14-1.4-19.2-4.2L50.6 83c4.1 2.1 8.6 3.2 13.2 3.2 4.7 0 8.2-1 10.5-3.1 2.4-2.1 3.6-5.5 3.6-10V33H94Z" fill="url(#accent)"/>
  <circle cx="95" cy="32" r="5.5" fill="#F4B400"/>
</svg>
