<svg xmlns="http://www.w3.org/2000/svg" viewBox="0 0 128 128" fill="none">
  <defs>
    <radialGradient id="s" cx="0.33" cy="0.26" r="0.78">
      <stop offset="0" stop-color="#fff9c4" stop-opacity=".95"/>
      <stop offset=".58" stop-color="#fde68a"/>
      <stop offset="1" stop-color="#f59e0b"/>
    </radialGradient>
    <linearGradient id="g" x1="14" y1="18" x2="112" y2="108">
      <stop offset="0" stop-color="#22d3ee"/>
      <stop offset="1" stop-color="#2563eb"/>
    </linearGradient>
  </defs>
  <ellipse cx="68" cy="78" rx="31" ry="24" fill="#082f49" fill-opacity=".26"/>
  <circle cx="64" cy="58" r="35" fill="url(#s)" stroke="#1f2937" stroke-width="3"/>
  <path d="M64 35 77 44l-4 15H55l-4-15 13-9Z" fill="url(#g)"/>
  <path d="M50 48 40 62l10 11 6-10-6-15Z" fill="#2563eb"/>
  <path d="M78 48 72 63l6 10 10-11-10-14Z" fill="#2563eb"/>
  <path d="M52 85 64 93l12-8-7-12H59l-7 12Z" fill="#22d3ee"/>
  <path d="M64 35 77 44l-4 15H55l-4-15 13-9Z" fill="none" stroke="#0f172a" stroke-width="2" opacity=".7"/>
  <circle cx="64" cy="58" r="35" fill="none" stroke="#ffffff" stroke-opacity=".35" stroke-width="2"/>
</svg>
