<svg xmlns="http://www.w3.org/2000/svg" viewBox="0 0 128 128" fill="none">
  <defs>
    <radialGradient id="s" cx="0.34" cy="0.28" r="0.76">
      <stop offset="0" stop-color="#ffffff" stop-opacity=".96"/>
      <stop offset=".64" stop-color="#f8fafc"/>
      <stop offset="1" stop-color="#fee2e2"/>
    </radialGradient>
    <linearGradient id="g" x1="18" y1="14" x2="108" y2="110">
      <stop offset="0" stop-color="#ef4444"/>
      <stop offset="1" stop-color="#be123c"/>
    </linearGradient>
  </defs>
  <ellipse cx="68" cy="76" rx="30" ry="24" fill="#7f1d1d" fill-opacity=".22"/>
  <circle cx="64" cy="58" r="34" fill="url(#s)" stroke="#7f1d1d" stroke-width="3"/>
  <path d="M64 36 77 44l-4 14H55l-4-14 13-8Z" fill="url(#g)"/>
  <path d="M45 49 40 63l11 8 5-11-11-11Z" fill="#ef4444"/>
  <path d="M83 49 72 60l5 11 11-8-5-14Z" fill="#ef4444"/>
  <path d="M52 84 64 92l12-8-6-12H58l-6 12Z" fill="#fb7185"/>
  <path d="M41 63h15m16 0h15" stroke="#9f1239" stroke-width="3" stroke-linecap="round"/>
  <circle cx="64" cy="58" r="34" fill="none" stroke="#ffffff" stroke-opacity=".38" stroke-width="2"/>
</svg>
