<svg xmlns="http://www.w3.org/2000/svg" width="512" height="512" baseProfile="full" viewBox="0 0 512 512"><defs><linearGradient id="c" x1="0%" x2="0%" y1="0%" y2="100%"><stop offset="0%" stop-color="#0f4fb7"/><stop offset="45%" stop-color="#1563e8"/><stop offset="100%" stop-color="#208bff"/></linearGradient><linearGradient id="d" x1="0%" x2="0%" y1="0%" y2="100%"><stop offset="0%" stop-color="#283548"/><stop offset="100%" stop-color="#111827"/></linearGradient><linearGradient id="a" x1="0%" x2="0%" y1="0%" y2="100%"><stop offset="0%" stop-color="#e0b08b"/><stop offset="100%" stop-color="#bd8a64"/></linearGradient><linearGradient id="b" x1="0%" x2="0%" y1="0%" y2="100%"><stop offset="0%" stop-color="#fff"/><stop offset="100%" stop-color="#eef2ff"/></linearGradient></defs><path fill="none" d="M0 0h512v512H0z"/><ellipse cx="256" cy="454" fill="#172033" opacity=".18" rx="96.8" ry="28"/><path fill="url(#a)" stroke="#0a0d12" stroke-linejoin="round" stroke-width="3" d="m276.76 235.44-22.14 64.3 26.48 9.11 22.14-64.29z"/><path fill="url(#b)" stroke="#0a0d12" stroke-linejoin="round" stroke-width="3" d="m256.9 303.34-6.79 77.7 21.91 1.92 6.8-77.71z"/><path stroke="#2b60d7" stroke-width="5" d="M257.861 331.491h20" opacity=".95"/><path fill="#101216" stroke="#0a0d12" stroke-width="3" d="M255.94 376.93q8.61-2.4 39.65 6.69 2.01 9.56-2.48 12.76Z"/><path fill="url(#a)" stroke="#0a0d12" stroke-linejoin="round" stroke-width="3" d="m208.21 242.43 11.81 66.97 27.58-4.86-11.81-66.97z"/><path fill="url(#b)" stroke="#0a0d12" stroke-linejoin="round" stroke-width="3" d="m222.81 306.58-2.72 77.96 21.99.76 2.72-77.95z"/><path stroke="#2b60d7" stroke-width="5" d="M223.808 334.25h20" opacity=".95"/><path fill="#101216" stroke="#0a0d12" stroke-width="3" d="M224.7 381.57q7.54-4.82 36.3-4.82 4.32 8.59 1.35 12.93Z"/><path fill="url(#c)" stroke="#0a0d12" stroke-linejoin="round" stroke-width="3" d="M234 144q-45 16-39 44 5 26.32 17 40 44 20 80 0 8-13.68 15-40 6-28-29-44-12 6-44 0Z"/><path fill="none" stroke="#fff" stroke-linecap="round" stroke-width="5" d="M236 152q20 14 40 0"/><path fill="none" stroke="#fff" stroke-linecap="round" stroke-width="6" d="M194 172q14-8 26 10M318 172q-14-8-26 10"/><path fill="none" stroke="#6dc0ff" stroke-width="3" d="M228 178q8 44 20 56" opacity=".45"/><path fill="url(#a)" stroke="#0a0d12" stroke-linejoin="round" stroke-width="3" d="m296.01 149.62-19.29 39.54 17.98 8.77 19.29-39.55z"/><path fill="url(#a)" stroke="#0a0d12" stroke-linejoin="round" stroke-width="3" d="m278.43 188.26-23.51 32.36 14.56 10.58 23.51-32.36z"/><path fill="url(#a)" stroke="#0a0d12" stroke-linejoin="round" stroke-width="2.4" d="m257.83 220.44-10 8 8.74 10.93 10-8z"/><path fill="url(#a)" stroke="#0a0d12" stroke-linejoin="round" stroke-width="3" d="m197.73 157.75 16.48 40.79 18.54-7.49-16.48-40.8z"/><path fill="url(#a)" stroke="#0a0d12" stroke-linejoin="round" stroke-width="3" d="m215.77 199.43 20.6 34.29 15.43-9.27-20.6-34.29z"/><path fill="url(#a)" stroke="#0a0d12" stroke-linejoin="round" stroke-width="2.4" d="m239.71 223.62-10 8 8.75 10.93 10-8z"/><ellipse cx="251.2" cy="90" fill="url(#a)" stroke="#0a0d12" stroke-width="3" rx="38" ry="44"/><path fill="#261813" stroke="#0a0d12" stroke-width="2.4" d="M221.2 76q6-28 38-34 20 22 12 42-22-6-44 0Z"/><path fill="none" stroke="#4b342d" stroke-width="3" d="M233.2 64q22-14 36 12" opacity=".45"/><path stroke="#0a0d12" stroke-linecap="round" stroke-width="2.8" d="m237.2 84 10-2"/><path fill="none" stroke="#bd8a64" stroke-width="2.2" d="M245.2 98q8 4 14-5" opacity=".8"/><path fill="none" stroke="#0a0d12" stroke-width="2.4" d="M239.2 110q12 10 26-4" opacity=".65"/><path fill="url(#d)" stroke="#0a0d12" stroke-linejoin="round" stroke-width="3" d="M208 216q6 36 20 56 26-14 30-14 26 14 40-6 6-36-22-26Z"/><path stroke="#364152" stroke-width="2.5" d="M256 230v30" opacity=".55"/><text x="256" y="204" fill="#f9fafb" font-family="Arial" font-size="34" font-weight="700" opacity=".95" text-anchor="middle">7</text><text x="258" y="207" fill="#0f172a" font-family="Arial" font-size="34" font-weight="700" opacity=".22" text-anchor="middle">7</text><path fill="none" stroke="#f8fafc" stroke-width="2" d="M234 382q20 10 44 2" opacity=".12"/></svg>