<svg xmlns="http://www.w3.org/2000/svg" viewBox="0 0 128 128" role="img" aria-labelledby="title desc">
  <title id="title">2J icon</title>
  <desc id="desc">Monograma 2J para la marca 2J Football Intelligence.</desc>
  <defs>
    <linearGradient id="bg" x1="0" y1="0" x2="1" y2="1">
      <stop offset="0%" stop-color="#0B1220"/>
      <stop offset="100%" stop-color="#15263F"/>
    </linearGradient>
    <linearGradient id="accent" x1="0" y1="0" x2="1" y2="1">
      <stop offset="0%" stop-color="#F4B400"/>
      <stop offset="100%" stop-color="#2F7D32"/>
    </linearGradient>
  </defs>
  <rect width="128" height="128" rx="28" fill="url(#bg)"/>
  <path d="M36 34c7.4-5.2 15.5-7.8 24.4-7.8 8.8 0 15.7 2 20.7 6.1 5.1 4 7.6 9.5 7.6 16.4 0 5.6-1.6 10.4-4.8 14.2-3.1 3.9-7.7 8.1-13.8 12.6l-12.4 9.4h32.8v13.3H33.3V86l26.9-20.9c5.1-4 8.6-7.1 10.3-9.2 1.8-2.2 2.7-4.6 2.7-7.3 0-3.2-1.1-5.6-3.3-7.4-2.1-1.8-5.1-2.7-9-2.7-6.6 0-13.2 2.4-19.8 7.2L36 34Z" fill="#F5F7FA"/>
  <path d="M98 33v41.2c0 8.8-2.5 15.6-7.5 20.4-5 4.8-12.2 7.2-21.6 7.2-7.8 0-14.4-1.4-19.8-4.3l4.2-12.5c4.3 2.2 8.8 3.3 13.6 3.3 4.8 0 8.4-1.1 10.8-3.2 2.5-2.2 3.7-5.7 3.7-10.4V33H98Z" fill="url(#accent)"/>
</svg>
