<svg xmlns="http://www.w3.org/2000/svg" viewBox="0 0 640 180" role="img" aria-labelledby="title desc">
  <title id="title">2J Football Intelligence</title>
  <desc id="desc">Wordmark de la marca 2J Football Intelligence.</desc>
  <defs>
    <linearGradient id="accent" x1="0" y1="0" x2="1" y2="1">
      <stop offset="0%" stop-color="#F4B400"/>
      <stop offset="100%" stop-color="#2F7D32"/>
    </linearGradient>
  </defs>
  <rect width="180" height="180" rx="34" fill="#0B1220"/>
  <path d="M42 49.5c10.4-7.4 21.9-11.1 34.4-11.1 12.5 0 22.2 2.9 29.2 8.6 7.1 5.7 10.7 13.4 10.7 23.1 0 7.9-2.3 14.6-6.8 20-4.4 5.5-10.8 11.4-19.4 17.8L72.7 121h46.2v18.7H38.1v-16.8L76 93.4c7.2-5.7 12.1-10 14.6-13 2.6-3 3.9-6.5 3.9-10.2 0-4.4-1.5-7.9-4.6-10.5-3-2.5-7.1-3.8-12.7-3.8-9.2 0-18.5 3.3-27.8 10L42 49.5Z" fill="#F5F7FA"/>
  <path d="M129.5 48v58c0 12.3-3.5 21.9-10.5 28.8-7 6.8-17.2 10.2-30.4 10.2-11 0-20.2-2-27.8-6.1l5.9-17.6c6 3.1 12.4 4.7 19.1 4.7 6.8 0 11.8-1.5 15.2-4.6 3.5-3.1 5.2-8 5.2-14.6V48h23.3Z" fill="url(#accent)"/>
  <text x="214" y="84" fill="#F5F7FA" font-family="Inter,Segoe UI,Arial,sans-serif" font-size="72" font-weight="800" letter-spacing="3">2J</text>
  <text x="216" y="122" fill="#F4B400" font-family="Inter,Segoe UI,Arial,sans-serif" font-size="20" font-weight="700" letter-spacing="7">FOOTBALL INTELLIGENCE</text>
  <text x="216" y="150" fill="#7A8797" font-family="Inter,Segoe UI,Arial,sans-serif" font-size="18" font-weight="600" letter-spacing="1.2">Del partido al entrenamiento.</text>
</svg>
