<svg xmlns="http://www.w3.org/2000/svg" viewBox="0 0 700 180" role="img" aria-labelledby="title desc">
  <title id="title">2J Football Intelligence</title>
  <desc id="desc">Logotipo refinado de la marca 2J Football Intelligence.</desc>
  <defs>
    <linearGradient id="tile" x1="0" y1="0" x2="1" y2="1">
      <stop offset="0%" stop-color="#0E1A2C"/>
      <stop offset="100%" stop-color="#08111D"/>
    </linearGradient>
    <linearGradient id="accent" x1="0" y1="0" x2="1" y2="1">
      <stop offset="0%" stop-color="#F4B400"/>
      <stop offset="100%" stop-color="#2F7D32"/>
    </linearGradient>
  </defs>

  <rect x="6" y="10" width="160" height="160" rx="36" fill="url(#tile)"/>
  <rect x="6.5" y="10.5" width="159" height="159" rx="35.5" fill="none" stroke="#FFFFFF" stroke-opacity=".08"/>
  <path d="M39 50.5c9.9-7.1 20.8-10.7 32.8-10.7 11.9 0 21.3 2.8 28 8.4 6.8 5.5 10.2 13 10.2 22.5 0 7.7-2.2 14.2-6.5 19.5-4.2 5.3-10.3 11.1-18.5 17.2L68.4 120h44.3v18H35.2v-16.3L71.5 93c6.9-5.5 11.6-9.7 14-12.6 2.5-2.9 3.8-6.2 3.8-10 0-4.3-1.5-7.7-4.4-10.2-2.9-2.5-6.8-3.7-12.1-3.7-8.8 0-17.7 3.2-26.6 9.7L39 50.5Z" fill="#F5F7FA"/>
  <path d="M123.5 48v55.9c0 11.9-3.4 21.2-10.1 27.8-6.7 6.6-16.4 9.9-29.1 9.9-10.5 0-19.3-2-26.6-5.9l5.7-17c5.8 3 11.8 4.5 18.3 4.5 6.5 0 11.3-1.5 14.6-4.4 3.3-3 5-7.7 5-14.2V48h22.2Z" fill="url(#accent)"/>
  <circle cx="129" cy="42" r="7" fill="#F4B400"/>

  <text x="208" y="88" fill="#F5F7FA" font-family="Avenir Next, Inter, Segoe UI, Arial, sans-serif" font-size="74" font-weight="800" letter-spacing="3">2J</text>
  <text x="212" y="123" fill="#F4B400" font-family="Avenir Next, Inter, Segoe UI, Arial, sans-serif" font-size="18" font-weight="700" letter-spacing="6">FOOTBALL INTELLIGENCE</text>
</svg>
